# xmcd
#
# Track frame offsets: 
#        150
#        18697
#        37025
#        57845
#        75047
#        93917
#        114342
#        132417
#        150305
#        166170
#        181177
#        206085
#
# Disc length: 3021 seconds
#
# Revision: 1
# Processed by: cddbd v1.5.2PL0 Copyright (c) Steve Scherf et al.
# Submitted via: ExactAudioCopy v1.1
#
DISCID=8a0bcb0c
DTITLE=Scialpi - I Grandi Successi Originali cd2
DYEAR=1900
DGENRE=pop
TTITLE0=Pioggia
TTITLE1=amici
TTITLE2=Da Bambino
TTITLE3=Cry (La voce d'entro)
TTITLE4=No east no west
TTITLE5=Pregherei (let the day)
TTITLE6=La corsa
TTITLE7=Paranoia
TTITLE8=Porca la miseria
TTITLE9=Solitario (so long)
TTITLE10=Il grande fiume
TTITLE11=A... Amare
EXTD=
EXTT0=
EXTT1=
EXTT2=
EXTT3=
EXTT4=
EXTT5=
EXTT6=
EXTT7=
EXTT8=
EXTT9=
EXTT10=
EXTT11=
PLAYORDER=
